<?xml version="1.0" encoding="UTF-8" standalone="no"?>
<svg width="120" height="40" viewBox="0 0 120 40" fill="none" xmlns="http://www.w3.org/2000/svg">
  <path d="M10 8C10 5.79086 11.7909 4 14 4H26C28.2091 4 30 5.79086 30 8V32C30 34.2091 28.2091 36 26 36H14C11.7909 36 10 34.2091 10 32V8Z" fill="#3B82F6"/>
  <path d="M35 12C35 9.79086 36.7909 8 39 8H51C53.2091 8 55 9.79086 55 12V28C55 30.2091 53.2091 32 51 32H39C36.7909 32 35 30.2091 35 28V12Z" fill="#8B5CF6"/>
  <path d="M60 16C60 13.7909 61.7909 12 64 12H76C78.2091 12 80 13.7909 80 16V24C80 26.2091 78.2091 28 76 28H64C61.7909 28 60 26.2091 60 24V16Z" fill="#EC4899"/>
  <path d="M85 16C85 14.8954 85.8954 14 87 14H110C111.105 14 112 14.8954 112 16V16C112 17.1046 111.105 18 110 18H87C85.8954 18 85 17.1046 85 16V16Z" fill="currentColor"/>
  <path d="M85 24C85 22.8954 85.8954 22 87 22H110C111.105 22 112 22.8954 112 24V24C112 25.1046 111.105 26 110 26H87C85.8954 26 85 25.1046 85 24V24Z" fill="currentColor"/>
</svg>
